<?xml version="1.0" standalone="no"?>
<!DOCTYPE svg PUBLIC "-//W3C//DTD SVG 20010904//EN"
 "http://www.w3.org/TR/2001/REC-SVG-20010904/DTD/svg10.dtd">
<svg version="1.0" xmlns="http://www.w3.org/2000/svg"
 width="1696.000000pt" height="1696.000000pt" viewBox="0 0 1696.000000 1696.000000"
 preserveAspectRatio="xMidYMid meet">
<metadata>
Created by potrace 1.14, written by Peter Selinger 2001-2017
</metadata>
<g transform="translate(0.000000,1696.000000) scale(0.100000,-0.100000)"
fill="#000000" stroke="none">
<path d="M5470 11804 c-106 -21 -295 -59 -1525 -299 -793 -155 -887 -173
-1200 -235 -170 -34 -313 -64 -317 -68 -3 -4 -103 -124 -222 -267 l-215 -260
-1 -285 -1 -285 -102 -139 c-57 -77 -107 -141 -113 -143 -7 -2 -13 170 -17
548 -4 304 -9 554 -10 555 -2 2 -121 -20 -266 -48 l-264 -52 8 -537 7 -537
-603 -734 c-331 -403 -606 -738 -611 -744 -6 -8 27 -10 124 -8 73 2 360 9 638
14 1817 36 2986 62 2992 68 6 7 176 325 1095 2052 333 626 585 1096 720 1348
52 97 60 93 -117 56z"/>
<path d="M7972 10269 l-100 -192 596 -891 c327 -490 602 -898 611 -907 14 -14
64 -18 341 -28 179 -6 552 -20 830 -31 894 -35 1014 -40 1675 -65 358 -14 882
-34 1165 -45 283 -11 634 -25 780 -30 146 -6 373 -15 505 -20 132 -5 326 -12
430 -14 l190 -5 -290 24 c-271 22 -762 60 -3600 280 -605 47 -1244 96 -1420
110 -213 17 -323 29 -331 38 -6 6 -294 449 -639 982 -345 534 -631 974 -635
978 -4 5 -53 -78 -108 -184z"/>
<path d="M15048 8033 c12 -2 32 -2 45 0 12 2 2 4 -23 4 -25 0 -35 -2 -22 -4z"/>
<path d="M4492 7557 c-80 -28 -83 -31 -77 -56 14 -61 68 -155 117 -207 100
-106 202 -146 373 -146 170 0 272 40 378 147 44 45 127 189 127 220 0 11 -129
65 -156 65 -5 0 -19 -19 -31 -42 -34 -71 -98 -144 -146 -167 -96 -47 -237 -47
-327 -1 -54 27 -107 87 -141 158 -17 34 -31 61 -32 61 -1 -1 -39 -15 -85 -32z"/>
<path d="M13692 7570 c-108 -24 -205 -58 -282 -102 -63 -35 -140 -95 -140
-109 0 -7 98 -235 106 -247 1 -2 31 18 66 43 140 104 250 140 428 140 153 0
213 -17 274 -79 96 -96 88 -285 -15 -383 -71 -66 -112 -76 -331 -81 l-198 -4
0 -143 0 -143 223 -5 c132 -2 237 -9 259 -16 62 -20 131 -73 158 -121 22 -39
25 -57 25 -135 0 -77 -4 -98 -26 -140 -56 -110 -154 -151 -359 -149 -116 1
-148 5 -223 28 -92 27 -191 74 -267 125 -24 17 -45 29 -46 28 -8 -10 -104
-244 -104 -254 0 -27 137 -110 252 -153 133 -49 225 -64 408 -64 149 -1 188 3
262 21 215 55 358 176 419 353 42 124 28 305 -33 423 -41 80 -141 169 -229
203 -65 25 -66 29 -12 55 69 34 154 122 191 199 66 134 66 315 1 448 -58 119
-186 215 -344 258 -98 27 -347 29 -463 4z"/>
<path d="M220 6595 l0 -976 158 3 157 3 5 646 5 645 275 -498 274 -498 106 0
105 1 275 502 275 502 3 -652 2 -653 160 0 160 0 0 975 0 976 -146 -3 -146 -3
-341 -632 c-188 -348 -345 -629 -348 -625 -4 4 -154 279 -334 612 -180 333
-334 615 -341 628 -14 21 -20 22 -159 22 l-145 0 0 -975z"/>
<path d="M7035 7558 c-2 -7 -6 -209 -8 -448 -4 -320 -9 -463 -20 -540 -43
-287 -112 -498 -206 -627 l-31 -43 -95 0 -95 0 0 -365 0 -365 160 0 160 0 0
225 0 225 735 0 735 0 0 -225 0 -225 160 0 160 0 0 365 0 364 -137 3 -138 3
-3 833 -2 832 -685 0 c-540 0 -687 -3 -690 -12z m1015 -963 l0 -695 -455 0
c-250 0 -455 2 -455 5 0 3 18 42 40 86 122 241 169 505 177 979 2 162 6 301 8
308 3 9 81 12 345 12 l340 0 0 -695z"/>
<path d="M15020 6601 l0 -971 428 0 c321 0 451 4 522 15 230 34 408 121 544
266 160 169 236 391 236 690 0 531 -262 854 -765 945 -71 13 -185 17 -527 21
l-438 6 0 -972z m844 669 c266 -38 430 -178 498 -429 31 -111 31 -381 0 -494
-46 -168 -144 -292 -282 -360 -122 -60 -189 -70 -470 -71 l-245 -1 -3 683 -2
682 214 0 c118 0 248 -5 290 -10z"/>
<path d="M3095 6990 c-230 -41 -410 -180 -490 -379 -42 -103 -58 -210 -52
-350 9 -217 60 -345 187 -473 131 -132 279 -187 498 -188 191 0 338 48 461
150 192 160 275 475 201 766 -58 226 -229 399 -455 460 -70 18 -278 27 -350
14z m290 -285 c123 -59 194 -204 195 -401 1 -280 -128 -444 -346 -444 -160 0
-274 95 -319 266 -32 122 -16 343 31 437 38 75 127 146 211 167 61 15 168 3
228 -25z"/>
<path d="M9441 6989 c-143 -25 -290 -104 -376 -202 -52 -59 -126 -204 -147
-287 -20 -83 -17 -338 6 -420 49 -183 168 -331 326 -409 107 -52 195 -71 338
-71 140 0 230 19 341 72 248 118 385 415 342 739 -39 294 -204 490 -476 564
-71 20 -277 28 -354 14z m295 -284 c128 -62 194 -201 194 -405 0 -168 -42
-284 -130 -363 -61 -55 -124 -77 -216 -77 -162 0 -278 99 -319 271 -29 126
-14 344 31 431 24 46 93 117 136 139 91 46 214 48 304 4z"/>
<path d="M4272 6298 l3 -673 142 -3 142 -3 333 445 c183 245 336 445 341 446
4 0 7 -200 7 -445 l0 -446 153 3 152 3 3 673 2 672 -145 0 -145 0 -335 -447
-335 -446 0 446 0 447 -160 0 -160 0 2 -672z"/>
<path d="M10630 6295 l0 -675 150 0 150 0 2 417 3 416 152 -259 c84 -142 166
-280 182 -306 l31 -48 75 0 75 0 33 53 c19 28 101 166 183 306 l149 255 3
-417 2 -417 150 0 150 0 0 675 0 676 -141 -3 -141 -3 -227 -389 c-125 -213
-231 -389 -234 -390 -4 0 -110 175 -235 389 l-228 390 -142 3 -142 3 0 -676z"/>
</g>
</svg>
