<?xml version="1.0" encoding="utf-8"?><svg viewBox="0 0 17 20" xmlns="http://www.w3.org/2000/svg" xmlns:xlink="http://www.w3.org/1999/xlink"><style>:root>svg{display:none}:root>svg:target{display:block}</style><svg viewBox="0 0 15 14" id="arrow-download" xmlns="http://www.w3.org/2000/svg"><g clip-path="url(#aa)"><path d="M11.389 14H3.61a3.09 3.09 0 01-2.2-.911 3.09 3.09 0 01-.911-2.2v-.778a.778.778 0 111.556 0v.778c0 .415.161.806.455 1.1.294.294.685.455 1.1.455h7.778c.415 0 .806-.161 1.1-.455.294-.294.455-.685.455-1.1v-.778a.778.778 0 111.556 0v.778a3.09 3.09 0 01-.911 2.2 3.09 3.09 0 01-2.2.911zM7.5 10.889a.775.775 0 01-.543-.221l-.002-.002-.002-.002-.001-.001-.002-.002L3.839 7.55a.778.778 0 011.1-1.1l1.783 1.783V.778a.778.778 0 111.556 0v7.455L10.06 6.45a.778.778 0 011.1 1.1l-3.11 3.11-.002.002-.001.001-.002.002-.002.002a.772.772 0 01-.24.16H7.8a.775.775 0 01-.301.06z"/></g><defs><clipPath id="aa"><path transform="translate(.5)" d="M0 0h14v14H0z"/></clipPath></defs></svg><svg viewBox="0 0 17 20" id="heart" xmlns="http://www.w3.org/2000/svg"><path d="M3.705 12.885l4.79 3.593 4.764-3.588c.323-.42.975-1.274 1.002-1.328.034-.068.712-.908.76-1.05.047-.143.61-1.098.61-1.166 0-.068.013-1.193 0-1.254-.011-.048-.638-1.118-.95-1.646l-1.632-.929-2.282-.19L9.28 6.895l-1.032.867c-.193-.31-.611-.975-.744-1.156-.132-.182-1.239-.764-1.776-1.033L2.9 5.967 1.412 7.639l.248 2.747 2.045 2.499z"/><path d="M14.906 6.179C14.166 5.419 13.139 5 12.016 5c-1.58 0-2.582.855-3.143 1.572a5.285 5.285 0 00-.373.548 5.145 5.145 0 00-.373-.548C7.566 5.855 6.565 5 4.984 5c-1.123 0-2.15.419-2.89 1.179A3.893 3.893 0 001 8.913c0 1.13.487 2.182 1.534 3.309.935 1.007 2.28 2.045 3.838 3.247.58.448 1.18.911 1.82 1.417l.019.015A.466.466 0 008.5 17a.466.466 0 00.29-.099l.019-.015c.639-.506 1.239-.97 1.82-1.417 1.557-1.202 2.902-2.24 3.838-3.247C15.512 11.095 16 10.044 16 8.913a3.894 3.894 0 00-1.094-2.734zm-4.848 8.684c-.5.386-1.015.784-1.558 1.211-.543-.427-1.058-.825-1.558-1.211-3.05-2.352-5.063-3.907-5.063-5.95 0-.844.31-1.628.875-2.208.57-.586 1.363-.91 2.23-.91 1.205 0 1.984.673 2.425 1.237a4.55 4.55 0 01.673 1.211.438.438 0 00.418.275c.19 0 .359-.11.418-.275a4.55 4.55 0 01.673-1.211c.44-.564 1.22-1.236 2.425-1.236.867 0 1.66.323 2.23.909a3.14 3.14 0 01.875 2.208c0 2.043-2.014 3.598-5.063 5.95z"/></svg><svg viewBox="0 0 12 13" id="windows-logo" xmlns="http://www.w3.org/2000/svg"><g clip-path="url(#ca)"><path d="M0 2.5v3.75h5.25V1.843L0 2.5zm6-.75v4.5h6V1l-6 .75zM6 7v4.5l6 .75V7H6zM0 7v3.75l5.25.656V7H0z"/></g><defs><clipPath id="ca"><path transform="translate(0 .625)" d="M0 0h12v12H0z"/></clipPath></defs></svg></svg>